<svg width="40" height="40" viewBox="0 0 50 50" fill="none" xmlns="http://www.w3.org/2000/svg">
<path d="M29.1667 39.5833C37.0229 39.5833 40.9521 39.5833 43.3917 37.1417C45.8334 34.7021 45.8334 30.7729 45.8334 22.9167C45.8334 15.0604 45.8334 11.1312 43.3917 8.69167C40.9521 6.25 37.0229 6.25 29.1667 6.25H20.8334C12.9771 6.25 9.04794 6.25 6.60835 8.69167C4.16669 11.1312 4.16669 15.0604 4.16669 22.9167C4.16669 30.7729 4.16669 34.7021 6.60835 37.1417C7.96877 38.5042 9.79169 39.1063 12.5 39.3708" stroke="white" stroke-width="4.16667" stroke-linecap="round" stroke-linejoin="round"/>
<path d="M29.1667 39.5833C26.5917 39.5833 23.7542 40.625 21.1646 41.9687C17.0021 44.1292 14.9208 45.2104 13.8958 44.5208C12.8708 43.8333 13.0646 41.6979 13.4542 37.4292L13.5417 36.4583" stroke="white" stroke-width="4.16667" stroke-linecap="round"/>
</svg>
