<svg width="40" height="40" viewBox="0 0 55 55" fill="none" xmlns="http://www.w3.org/2000/svg">
<path d="M27.5 27.5C33.8283 27.5 38.9584 22.3699 38.9584 16.0417C38.9584 9.7134 33.8283 4.58333 27.5 4.58333C21.1718 4.58333 16.0417 9.7134 16.0417 16.0417C16.0417 22.3699 21.1718 27.5 27.5 27.5Z" stroke="white" stroke-width="4.16667"/>
<path d="M38.9583 50.4167H12.0679C11.418 50.4168 10.7754 50.2787 10.1829 50.0115C9.59039 49.7444 9.06148 49.3542 8.63127 48.867C8.20107 48.3798 7.87941 47.8067 7.68763 47.1857C7.49586 46.5646 7.43836 45.9099 7.51896 45.265L8.41271 38.1058C8.62055 36.4426 9.42887 34.9126 10.6857 33.8035C11.9424 32.6944 13.5611 32.0827 15.2373 32.0833H16.0417" stroke="white" stroke-width="4.16667" stroke-linecap="round" stroke-linejoin="round"/>
<path d="M43.5417 29.7917V43.5417" stroke="white" stroke-width="4.16667" stroke-linecap="round" stroke-linejoin="round"/>
<path d="M36.6667 36.6667H50.4167" stroke="white" stroke-width="4.16667" stroke-linecap="round" stroke-linejoin="round"/>
</svg>
