<svg width="40" height="40" viewBox="0 0 57 53" fill="none" xmlns="http://www.w3.org/2000/svg">
<path d="M9.5 30.9145L30.875 30.9167C32.0734 30.9163 33.2276 31.3371 34.1063 32.0948C34.985 32.8525 35.5232 33.8909 35.6131 35.0021L35.625 35.3333V38.6458C35.6226 46.375 26.7995 48.5833 20.1875 48.5833C13.7228 48.5833 5.14188 46.4722 4.76188 39.1537L4.75 38.6458V35.3311C4.75 33.0035 6.688 31.0955 9.14375 30.9255L9.5 30.9167V30.9145ZM36.1475 30.9167H47.5C50.0033 30.9167 52.0552 32.7187 52.2357 35.0021L52.25 35.3333V37.5417C52.2476 44.3036 45.4622 46.375 40.375 46.375C38.6519 46.3788 36.9381 46.139 35.2925 45.6639C36.0905 44.8115 36.7341 43.8376 37.1973 42.7335C38.2405 42.9502 39.306 43.0606 40.375 43.0625L41.0091 43.0492C43.3485 42.9543 48.3384 42.2476 48.6709 37.9944L48.6875 37.5417V35.3333C48.6871 35.075 48.5896 34.825 48.4117 34.6265C48.2339 34.4281 47.9869 34.2938 47.7137 34.2468L47.5 34.2292H37.8789C37.6825 33.1481 37.1965 32.1304 36.4657 31.27L36.1475 30.9167H47.5H36.1475ZM9.5 34.227L9.2625 34.249C9.03455 34.2932 8.82511 34.3974 8.65925 34.5494C8.4958 34.7027 8.38361 34.8967 8.33625 35.1081L8.3125 35.3311V38.6458C8.3125 40.874 9.38125 42.4486 11.6779 43.5969C13.6396 44.5796 16.435 45.1737 19.4346 45.2598L20.1875 45.2708L20.9404 45.2598C23.94 45.1737 26.733 44.5796 28.6971 43.5969C30.8489 42.5192 31.9247 41.0684 32.0506 39.0544L32.0625 38.6436V35.3333C32.0621 35.075 31.9646 34.825 31.7867 34.6265C31.6089 34.4281 31.3619 34.2938 31.0888 34.2468L30.875 34.2292L9.5 34.227ZM20.1875 6.625C23.022 6.625 25.7404 7.67198 27.7447 9.53563C29.749 11.3993 30.875 13.9269 30.875 16.5625C30.875 19.1981 29.749 21.7257 27.7447 23.5894C25.7404 25.453 23.022 26.5 20.1875 26.5C17.353 26.5 14.6346 25.453 12.6303 23.5894C10.626 21.7257 9.5 19.1981 9.5 16.5625C9.5 13.9269 10.626 11.3993 12.6303 9.53563C14.6346 7.67198 17.353 6.625 20.1875 6.625ZM41.5625 11.0417C43.7671 11.0417 45.8814 11.856 47.4403 13.3055C48.9992 14.755 49.875 16.7209 49.875 18.7708C49.875 20.8207 48.9992 22.7867 47.4403 24.2362C45.8814 25.6857 43.7671 26.5 41.5625 26.5C39.3579 26.5 37.2436 25.6857 35.6847 24.2362C34.1258 22.7867 33.25 20.8207 33.25 18.7708C33.25 16.7209 34.1258 14.755 35.6847 13.3055C37.2436 11.856 39.3579 11.0417 41.5625 11.0417ZM20.1875 9.9375C16.2592 9.9375 13.0625 12.9099 13.0625 16.5625C13.0625 20.2151 16.2592 23.1875 20.1875 23.1875C24.1157 23.1875 27.3125 20.2151 27.3125 16.5625C27.3125 12.9099 24.1157 9.9375 20.1875 9.9375ZM41.5625 14.3542C38.9429 14.3542 36.8125 16.335 36.8125 18.7708C36.8125 21.2066 38.9429 23.1875 41.5625 23.1875C44.1821 23.1875 46.3125 21.2066 46.3125 18.7708C46.3125 16.335 44.1821 14.3542 41.5625 14.3542Z" fill="white"/>
</svg>
