<svg width="40" height="40" viewBox="0 0 46 49" fill="none" xmlns="http://www.w3.org/2000/svg">
<path d="M19.7936 1.6416C20.6746 0.850032 21.8172 0.41214 23.0016 0.41214C24.186 0.41214 25.3286 0.850032 26.2096 1.6416L43.8096 17.456C44.31 17.906 44.7102 18.4562 44.9842 19.0709C45.2582 19.6856 45.3998 20.351 45.4 21.024V43.6C45.4 44.873 44.8943 46.0939 43.9941 46.9941C43.0939 47.8943 41.873 48.4 40.6 48.4H32.6C31.3269 48.4 30.106 47.8943 29.2059 46.9941C28.3057 46.0939 27.8 44.873 27.8 43.6V32.4C27.8 31.9757 27.6314 31.5687 27.3314 31.2686C27.0313 30.9686 26.6243 30.8 26.2 30.8H19.8C19.3756 30.8 18.9687 30.9686 18.6686 31.2686C18.3685 31.5687 18.2 31.9757 18.2 32.4V43.6C18.2 44.873 17.6943 46.0939 16.7941 46.9941C15.8939 47.8943 14.673 48.4 13.4 48.4H5.39998C4.12694 48.4 2.90604 47.8943 2.00586 46.9941C1.10569 46.0939 0.599976 44.873 0.599976 43.6V21.024C0.599976 19.664 1.17598 18.368 2.19358 17.456L19.7936 1.6416V1.6416ZM24.0688 4.0224C23.7752 3.75884 23.3945 3.61306 23 3.61306C22.6054 3.61306 22.2248 3.75884 21.9312 4.0224L4.33118 19.8368C4.16445 19.9865 4.03101 20.1695 3.9395 20.374C3.848 20.5785 3.80046 20.8 3.79998 21.024V43.6C3.79998 44.0243 3.96855 44.4313 4.26861 44.7314C4.56866 45.0314 4.97563 45.2 5.39998 45.2H13.4C13.8243 45.2 14.2313 45.0314 14.5313 44.7314C14.8314 44.4313 15 44.0243 15 43.6V32.4C15 31.127 15.5057 29.9061 16.4059 29.0059C17.306 28.1057 18.5269 27.6 19.8 27.6H26.2C27.473 27.6 28.6939 28.1057 29.5941 29.0059C30.4943 29.9061 31 31.127 31 32.4V43.6C31 44.0243 31.1685 44.4313 31.4686 44.7314C31.7687 45.0314 32.1756 45.2 32.6 45.2H40.6C41.0243 45.2 41.4313 45.0314 41.7314 44.7314C42.0314 44.4313 42.2 44.0243 42.2 43.6V21.024C42.1995 20.8 42.152 20.5785 42.0605 20.374C41.9689 20.1695 41.8355 19.9865 41.6688 19.8368L24.0688 4.0224Z" fill="white"/>
</svg>
