<svg width="25" height="24" viewBox="0 0 25 24" fill="none" xmlns="http://www.w3.org/2000/svg">
<path d="M12.5 22L12.2385 22.4261L12.4989 22.586L12.76 22.4271L12.5 22ZM12.5 22C12.76 22.4271 12.7601 22.427 12.7603 22.4269L12.7609 22.4266L12.7628 22.4254L12.7698 22.4211L12.796 22.4049C12.8188 22.3908 12.8522 22.3701 12.8954 22.3429C12.9818 22.2886 13.1076 22.2085 13.2673 22.1044C13.5865 21.8961 14.0413 21.5916 14.5864 21.2045C15.6757 20.431 17.1303 19.3244 18.5871 17.9942C20.042 16.6659 21.5118 15.1031 22.621 13.4152C23.7278 11.731 24.5 9.88477 24.5 8C24.5 3.92685 21.5036 0.5 17.7273 0.5C15.6063 0.5 13.7212 1.55096 12.5 3.22961C11.2788 1.55096 9.39374 0.5 7.27273 0.5C3.49641 0.5 0.5 3.92685 0.5 8C0.5 9.87094 1.27284 11.7101 2.37923 13.3909C3.4882 15.0757 4.95775 16.6401 6.41236 17.9719C7.86894 19.3055 9.32334 20.4175 10.4125 21.1955C10.9575 21.5849 11.4122 21.8914 11.7313 22.1011C11.891 22.2059 12.0168 22.2866 12.1032 22.3413C12.1463 22.3687 12.1797 22.3896 12.2025 22.4038L12.2286 22.4201L12.2356 22.4244L12.2376 22.4256L12.2381 22.4259C12.2383 22.4261 12.2385 22.4261 12.5 22Z" fill="#F44336" stroke="black"/>
</svg>
