<svg width="40" height="40" viewBox="0 0 48 48" fill="none" xmlns="http://www.w3.org/2000/svg">
<path d="M3.0375 37.4734L10.6391 29.8717L16.4861 27.4561C14.5393 24.6875 13.4962 21.3846 13.5 18C13.5 8.90184 20.9018 1.5 30 1.5C39.0982 1.5 46.5 8.90184 46.5 18C46.5 27.0982 39.0982 34.5 30 34.5C26.586 34.5039 23.2557 33.4428 20.4732 31.4647L18.0638 37.2959L10.4625 44.8979C9.975 45.3854 9.39624 45.7722 8.75928 46.036C8.12232 46.2999 7.43962 46.4357 6.75017 46.4357C6.06071 46.4358 5.37801 46.3 4.74103 46.0362C4.10405 45.7723 3.52527 45.3856 3.03774 44.8981C2.55021 44.4106 2.16347 43.8319 1.8996 43.1949C1.63574 42.558 1.49992 41.8753 1.4999 41.1858C1.49988 40.4964 1.63566 39.8136 1.89948 39.1767C2.1633 38.5397 2.55 37.9609 3.0375 37.4734ZM43.5 18C43.5 10.5562 37.4438 4.5 30 4.5C22.5563 4.5 16.5 10.5562 16.5 18C16.5 25.4438 22.5563 31.5 30 31.5C37.4438 31.5 43.5 25.4438 43.5 18ZM5.15897 42.7766C5.58127 43.198 6.15346 43.4346 6.75 43.4346C7.34655 43.4346 7.91874 43.198 8.34103 42.7766L15.5197 35.598L17.7597 30.176L12.3375 32.416L5.15879 39.5947C4.7375 40.017 4.50092 40.5892 4.50096 41.1857C4.501 41.7822 4.73764 42.3544 5.15897 42.7766Z" fill="white"/>
</svg>
