<svg width="36" height="36" viewBox="0 0 36 36" fill="none" xmlns="http://www.w3.org/2000/svg">
<rect x="1.5" y="1.5" width="33" height="33" rx="16.5" fill="white"/>
<path d="M31.45 17.5631L26.2605 16.0569C26.0441 15.2036 25.7059 14.3857 25.2563 13.6283C26.1197 12.0501 26.9844 10.472 27.8491 8.89423C28.0855 8.46252 27.6141 7.99007 27.1804 8.2276L22.4537 10.817C21.6872 10.3562 20.8565 10.0112 19.9887 9.7932C19.4746 8.04642 18.961 6.29964 18.447 4.54852C18.311 4.0843 17.6418 4.08257 17.5049 4.54852C16.9952 6.29964 16.4842 8.04642 15.9737 9.79753C15.122 10.0146 14.306 10.3527 13.5508 10.8014C11.9578 9.9345 10.3645 9.06328 8.7715 8.19639C8.33958 7.96103 7.86552 8.43175 8.10364 8.86433L10.7238 13.6227C10.2703 14.3835 9.93012 15.2062 9.71397 16.0647L4.54969 17.5748C4.08476 17.7109 4.08215 18.3793 4.54969 18.5145L9.71571 20.0138C9.93801 20.8878 10.2878 21.7244 10.7538 22.497C9.8943 24.0652 9.03482 25.633 8.1762 27.2016C7.93896 27.6333 8.41041 28.1062 8.84406 27.8691C10.414 27.0087 11.9843 26.1483 13.5547 25.2888C14.3175 25.7425 15.1425 26.083 16.0037 26.2996C16.5073 28.0178 17.0126 29.7342 17.5171 31.4502C17.654 31.9158 18.3236 31.9166 18.4591 31.4502C18.9593 29.736 19.4607 28.0213 19.96 26.3066C20.8307 26.0892 21.6647 25.7456 22.4354 25.2867L27.117 27.8388C27.1611 27.8755 27.2125 27.9026 27.2678 27.9183C27.3231 27.9341 27.3811 27.9381 27.4381 27.9302C27.5563 27.9233 27.6614 27.8691 27.7431 27.7894C27.8335 27.7061 27.8952 27.5939 27.9026 27.4665C27.91 27.4092 27.9054 27.3509 27.8891 27.2955C27.8728 27.2401 27.8451 27.1886 27.8079 27.1444C26.9536 25.5914 26.0971 24.037 25.2424 22.4831C25.6985 21.7159 26.0407 20.8868 26.2584 20.0216C27.9877 19.5154 29.7197 19.0091 31.4496 18.5037C31.9158 18.3676 31.9176 17.6988 31.4504 17.5631" fill="#FBB041"/>
<path d="M17.7 25.2002C21.8421 25.2002 25.2 21.8423 25.2 17.7002C25.2 13.5581 21.8421 10.2002 17.7 10.2002C13.5579 10.2002 10.2 13.5581 10.2 17.7002C10.2 21.8423 13.5579 25.2002 17.7 25.2002Z" fill="#F9EC21"/>
<rect x="1.5" y="1.5" width="33" height="33" rx="16.5" stroke="black" stroke-width="3" stroke-linecap="round"/>
</svg>
